Coordinates
version=1
nRows=10
nColumns=46
inDegrees=yes

Units are S.I. units (second, meters, Newtons, ...)
Angles are in degrees.

endheader
time	pelvis_tilt	pelvis_list	pelvis_rotation	pelvis_tx	pelvis_ty	pelvis_tz	bb_angle	bb_tx	bb_ty	bb_tz	hip_flexion_r	hip_adduction_r	hip_rotation_r	knee_angle_r	knee_angle_r_beta	ankle_angle_r	subtalar_angle_r	mtp_angle_r	crank_angle_r	hip_flexion_l	hip_adduction_l	hip_rotation_l	knee_angle_l	knee_angle_l_beta	ankle_angle_l	subtalar_angle_l	mtp_angle_l	crank_angle_l	lumbar_extension	lumbar_bending	lumbar_rotation	arm_flex_r	arm_add_r	arm_rot_r	elbow_flex_r	pro_sup_r	wrist_flex_r	wrist_dev_r	arm_flex_l	arm_add_l	arm_rot_l	elbow_flex_l	pro_sup_l	wrist_flex_l	wrist_dev_l
      7.50000000	    -11.49966480	     -6.39084802	     -6.89053876	      0.09100330	      1.15921091	     -0.26824278	      0.00000000	      0.50000000	      0.00000000	      0.25000000	     91.87499725	     -3.20677541	     -1.33440706	    106.19561409	      1.85346312	      8.03216835	      3.67496572	      0.00000000	      0.00000000	     46.38574490	    -21.42126507	    -16.08111605	     53.34918949	      0.93111901	    -13.89664759	      8.68307714	      0.00000000	      0.00000000	    -62.70475573	      6.46964712	      8.31119774	     89.78169147	     -2.03873593	     26.33448369	     46.18946282	     24.09795912	      0.00000000	      0.00000000	     89.70370785	    -10.18427532	     29.45510860	     34.71506510	     21.45356166	      0.00000000	      0.00000000
      7.50500000	    -11.67963856	     -6.20439920	     -6.89743601	      0.09066737	      1.15911047	     -0.26794622	      0.00000000	      0.50000000	      0.00000000	      0.25000000	     91.46014000	     -3.11238383	     -1.29560263	    104.69973321	      1.82735507	      9.20864286	      4.11181777	      0.00000000	      0.00000000	     47.22794292	    -21.53324959	    -15.80253662	     55.03657773	      0.96056949	    -14.79831467	      7.76930430	      0.00000000	      0.00000000	    -62.42824923	      6.44940321	      8.13007498	     89.78342885	     -1.84857074	     26.35839785	     45.77948807	     23.94122405	      0.00000000	      0.00000000	     89.71061650	    -10.25984191	     29.93270724	     34.11330267	     21.67648742	      0.00000000	      0.00000000
      7.51000000	    -11.66030832	     -6.04749394	     -6.94185576	      0.09045270	      1.15936213	     -0.26749365	      0.00000000	      0.50000000	      0.00000000	      0.25000000	     90.68111680	     -3.00377370	     -1.32906915	    103.07139436	      1.79893520	     10.42833478	      4.59027613	      0.00000000	      0.00000000	     47.83740649	    -21.74698101	    -15.65007354	     56.76327013	      0.99070596	    -15.60650674	      6.88797042	      0.00000000	      0.00000000	    -62.45893047	      6.33131394	      8.01473941	     89.78358042	     -1.78273270	     26.34848546	     45.89090694	     23.76560133	      0.00000000	      0.00000000	     89.71007541	    -10.35861372	     30.10014328	     34.19115214	     21.62726453	      0.00000000	      0.00000000
      7.51500000	    -11.65413503	     -5.86141072	     -6.93860045	      0.09030965	      1.15961431	     -0.26702096	      0.00000000	      0.50000000	      0.00000000	      0.25000000	     89.76603282	     -2.99292633	     -1.38976189	    101.28310145	      1.76772360	     11.70587836	      5.03656640	      0.00000000	      0.00000000	     48.48901230	    -21.89938138	    -15.47685959	     58.47311098	      1.02054831	    -16.76111948	      6.25946203	      0.00000000	      0.00000000	    -62.42439301	      6.20462252	      7.80743399	     89.78234521	     -1.73899127	     26.34097784	     45.92340039	     23.62741555	      0.00000000	      0.00000000	     89.71323388	    -10.38878658	     30.17538560	     34.24481260	     21.58706036	      0.00000000	      0.00000000
      7.52000000	    -11.56796500	     -5.59288905	     -6.90265978	      0.09018969	      1.15967788	     -0.26644522	      0.00000000	      0.50000000	      0.00000000	      0.25000000	     88.72987495	     -3.08888078	     -1.47758318	     99.45308945	      1.73578386	     12.83420448	      5.30924008	      0.00000000	      0.00000000	     49.09923966	    -21.95063797	    -15.27418108	     60.29699089	      1.05238102	    -17.31210647	      5.41757100	      0.00000000	      0.00000000	    -62.45930265	      5.98368714	      7.58576204	     89.78022686	     -1.74620302	     26.33398565	     45.89607205	     23.50798281	      0.00000000	      0.00000000	     89.71235562	    -10.37181210	     30.20880548	     34.28163944	     21.55104209	      0.00000000	      0.00000000
      7.52500000	    -11.47598838	     -5.29867986	     -6.84161291	      0.09013130	      1.15959424	     -0.26573066	      0.00000000	      0.50000000	      0.00000000	      0.25000000	     87.60757861	     -3.16630995	     -1.52854429	     97.52923590	      1.70220628	     13.91975309	      5.50342884	      0.00000000	      0.00000000	     49.74473025	    -22.01476619	    -15.10515368	     62.20980415	      1.08576591	    -17.71149972	      4.65769997	      0.00000000	      0.00000000	    -62.46527163	      5.73908686	      7.32049604	     89.77800633	     -1.80278272	     26.31880937	     45.84161278	     23.41677870	      0.00000000	      0.00000000	     89.71655518	    -10.31170335	     30.21481773	     34.32848684	     21.52661620	      0.00000000	      0.00000000
      7.53000000	    -11.37828209	     -5.07254244	     -6.71882560	      0.09007873	      1.15953654	     -0.26504129	      0.00000000	      0.50000000	      0.00000000	      0.25000000	     86.34680132	     -3.26121862	     -1.65219475	     95.45141589	      1.66594148	     14.85319154	      5.75709007	      0.00000000	      0.00000000	     50.44278774	    -22.07026026	    -14.80741911	     64.12410149	      1.11917670	    -18.08339043	      3.79495780	      0.00000000	      0.00000000	    -62.45859803	      5.54451572	      7.09041214	     89.77668883	     -1.86908079	     26.32111885	     45.74125164	     23.30938122	      0.00000000	      0.00000000	     89.71936667	    -10.17957905	     30.21119672	     34.39881350	     21.49996990	      0.00000000	      0.00000000
      7.53500000	    -11.25846469	     -4.80540316	     -6.57348743	      0.08998624	      1.15929534	     -0.26415694	      0.00000000	      0.50000000	      0.00000000	      0.25000000	     85.05639645	     -3.35679035	     -1.76297358	     93.34141076	      1.62911495	     15.61576085	      5.84944176	      0.00000000	      0.00000000	     51.15690162	    -22.09558503	    -14.48798495	     66.08395973	      1.15338268	    -18.28771040	      3.14000958	      0.00000000	      0.00000000	    -62.46005758	      5.31714348	      6.81353156	     89.77376810	     -1.96984620	     26.32284587	     45.64023673	     23.20830222	      0.00000000	      0.00000000	     89.72323427	    -10.00545907	     30.19625191	     34.46272604	     21.47153831	      0.00000000	      0.00000000
      7.54000000	    -11.12502227	     -4.21803376	     -6.37901936	      0.08998627	      1.15918237	     -0.26313214	      0.00000000	      0.50000000	      0.00000000	      0.25000000	     83.81133840	     -3.55658635	     -1.56594359	     91.17822157	      1.59136017	     15.90876243	      5.78446751	      0.00000000	      0.00000000	     51.74617637	    -21.83962886	    -14.38303366	     67.92303849	      1.18548066	    -18.38010007	      2.93599859	      0.00000000	      0.00000000	    -62.39414223	      4.82443145	      6.15429322	     89.76753365	     -2.11647057	     26.27009512	     45.62137963	     23.18060900	      0.00000000	      0.00000000	     89.72667506	     -9.76967846	     30.24341586	     34.51812985	     21.47263990	      0.00000000	      0.00000000
      7.54500000	    -10.95393528	     -4.31530684	     -6.17319271	      0.09004543	      1.15877030	     -0.26208227	      0.00000000	      0.50000000	      0.00000000	      0.25000000	     82.25153288	     -3.56552313	     -2.11350919	     88.91456652	      1.55185194	     16.43095952	      5.40990946	      0.00000000	      0.00000000	     52.66644716	    -22.18066329	    -13.73093429	     70.13967485	      1.22416826	    -18.37193756	      2.04471422	      0.00000000	      0.00000000	    -62.50708029	      4.85668617	      6.33379763	     89.76813758	     -2.29107033	     26.37665887	     45.26341481	     22.97401482	      0.00000000	      0.00000000	     89.73067115	     -9.53795628	     30.08917754	     34.64056823	     21.40402704	      0.00000000	      0.00000000
